# xmcd CD database file
#
# Track frame offsets:
#	182
#	18650
#	38950
#	55030
#	72345
#	96062
#	115092
#	149325
#	166635
#	184122
#	200210
#
# Disc length: 3138 seconds
#
# Revision: 2
# Processed by: cddbd v1.4b41PL1 Copyright (c) Steve Scherf et al.
# Submitted via: Feurio! 1.50.2ß - http://www.feurio.com
#
DISCID=980c400b
DTITLE=The Nick Gravenites-John Cippolina Band - Monkey Medecine
DYEAR=1900
DGENRE=
TTITLE0=blues in the bottle
TTITLE1=six weeks in reno
TTITLE2=I'll pull the trigger
TTITLE3=trust me
TTITLE4=buried alive in the blues
TTITLE5=born in chicako
TTITLE6=bad luck baby
TTITLE7=signs of life
TTITLE8=pride of man
TTITLE9=hot rods and cool women
TTITLE10=small walk-in box
EXTD=
EXTT0=
EXTT1=
EXTT2=
EXTT3=
EXTT4=
EXTT5=
EXTT6=
EXTT7=
EXTT8=
EXTT9=
EXTT10=
PLAYORDER=
